<?xml version="1.0" standalone="no"?>
<!DOCTYPE svg PUBLIC "-//W3C//DTD SVG 20010904//EN"
 "http://www.w3.org/TR/2001/REC-SVG-20010904/DTD/svg10.dtd">
<svg version="1.0" xmlns="http://www.w3.org/2000/svg"
 width="431.000000pt" height="431.000000pt" viewBox="0 0 431.000000 431.000000"
 preserveAspectRatio="xMidYMid meet">
<metadata>
Created by potrace 1.14, written by Peter Selinger 2001-2017
</metadata>
<g transform="translate(0.000000,431.000000) scale(0.100000,-0.100000)"
fill="#000000" stroke="none">
<path d="M2497 4284 c-1 -1 -47 -4 -102 -8 -55 -3 -111 -8 -125 -11 -28 -5
-88 -14 -138 -20 -18 -2 -36 -6 -41 -9 -5 -3 -26 -8 -47 -12 -22 -3 -47 -10
-56 -15 -10 -5 -18 -7 -18 -3 0 3 -6 2 -12 -4 -7 -6 -17 -11 -23 -11 -18 -2
-99 -34 -122 -49 -13 -8 -23 -11 -23 -7 0 4 -7 1 -16 -6 -9 -7 -23 -14 -32
-16 -9 -1 -18 -7 -20 -12 -2 -6 -12 -11 -23 -11 -10 0 -19 -4 -19 -9 0 -5 -13
-12 -30 -16 -16 -4 -30 -10 -30 -14 0 -4 -16 -15 -35 -24 -19 -9 -35 -22 -35
-27 0 -6 -4 -9 -9 -5 -6 3 -13 0 -18 -7 -4 -7 -20 -19 -35 -27 -15 -8 -36 -21
-46 -30 -10 -9 -25 -20 -34 -26 -34 -21 -133 -89 -138 -94 -10 -11 -95 -65
-99 -62 -2 2 -7 -2 -10 -7 -6 -11 -139 -102 -147 -102 -7 0 -68 -44 -76 -55
-4 -5 -8 -7 -8 -3 0 5 -11 -2 -24 -13 -13 -12 -27 -20 -31 -19 -4 1 -11 -3
-14 -8 -3 -5 -46 -40 -96 -77 -49 -37 -96 -75 -102 -83 -7 -9 -13 -13 -13 -8
0 4 -11 -3 -25 -16 -13 -13 -41 -36 -61 -53 -34 -29 -134 -127 -167 -165 -8
-10 -13 -21 -10 -24 4 -3 1 -6 -5 -6 -7 0 -12 -7 -12 -15 0 -8 -4 -15 -9 -15
-5 0 -12 -13 -16 -30 -4 -16 -11 -30 -16 -30 -5 0 -8 -3 -7 -7 0 -5 -2 -16 -5
-25 -8 -21 -16 -46 -17 -53 0 -3 -8 -24 -16 -47 -17 -49 -28 -101 -28 -140 -1
-16 -3 -28 -6 -28 -7 0 -3 -111 5 -165 4 -22 7 -48 8 -57 1 -10 5 -18 9 -18 4
0 7 -3 7 -7 -1 -5 0 -11 1 -15 1 -5 3 -11 4 -15 16 -59 31 -101 48 -131 12
-20 26 -47 33 -59 7 -13 15 -20 18 -16 4 3 7 0 7 -7 0 -7 11 -23 26 -36 14
-13 21 -24 17 -24 -4 0 9 -12 30 -27 20 -14 37 -30 37 -35 0 -4 5 -8 10 -8 6
0 20 -8 31 -19 11 -10 40 -29 64 -41 25 -13 45 -27 45 -32 0 -5 4 -7 9 -3 5 3
12 1 16 -5 4 -6 11 -8 16 -5 5 4 9 1 9 -4 0 -6 9 -11 19 -11 11 0 22 -4 25 -8
16 -27 285 -52 313 -29 9 6 13 6 13 -1 0 -5 9 -8 20 -5 11 3 20 9 20 13 0 5 8
7 18 5 9 -1 28 2 42 7 14 5 34 12 45 14 32 8 38 10 80 29 22 11 42 19 45 20
15 2 154 73 215 108 39 22 72 40 74 38 2 -1 7 1 10 6 9 13 89 63 101 63 5 0
10 4 10 9 0 5 8 11 18 15 20 7 76 39 95 55 8 6 17 8 20 4 4 -3 8 2 8 13 2 35
-3 59 -15 66 -6 4 -7 8 -2 8 6 0 1 6 -10 14 -13 10 -23 11 -31 4 -7 -6 -13 -8
-13 -4 0 3 -29 -9 -64 -29 -35 -19 -66 -32 -70 -28 -3 3 -6 0 -6 -7 0 -7 -3
-11 -6 -7 -3 3 -25 -1 -47 -9 -40 -15 -79 -23 -123 -28 -11 -1 -24 -5 -30 -7
-15 -9 -83 -13 -204 -13 -119 0 -145 3 -193 22 -16 7 -32 12 -37 12 -5 0 -15
6 -22 13 -7 6 -26 19 -43 27 -36 18 -130 112 -148 149 -7 14 -18 35 -24 46
-23 40 -32 73 -35 127 -2 21 -6 38 -9 38 -6 0 -2 183 4 230 8 52 40 150 50
150 6 0 8 3 4 6 -3 3 5 23 18 44 13 21 21 41 17 46 -4 4 -2 4 5 0 7 -4 16 1
22 12 11 21 141 154 141 145 0 -4 9 3 20 15 12 12 24 22 28 22 4 0 22 14 40
31 17 16 32 26 32 22 0 -4 4 -3 8 2 10 15 122 86 122 79 0 -4 8 0 18 8 9 9 27
19 40 22 12 4 22 12 22 17 0 5 6 9 13 8 6 -1 39 11 72 27 33 15 62 29 65 30
25 5 67 18 75 23 6 3 16 7 23 8 6 2 18 4 25 6 6 1 17 5 22 8 6 4 18 5 28 4 9
-2 15 1 11 6 -3 5 7 9 23 10 25 0 37 2 76 12 45 12 122 25 182 32 17 2 89 7
160 10 72 4 145 8 163 9 17 1 32 -3 32 -8 0 -6 4 -5 9 3 5 7 13 11 17 8 8 -4
167 -18 242 -20 12 -1 22 -5 22 -10 0 -4 5 -5 10 -2 6 4 36 1 68 -6 31 -6 62
-12 67 -13 6 -1 16 -5 23 -9 6 -5 12 -6 12 -3 0 3 15 -1 34 -9 18 -8 36 -11
40 -8 3 4 6 1 6 -6 0 -7 4 -10 9 -6 5 3 12 1 16 -5 4 -6 11 -8 16 -5 5 4 9 1
9 -5 0 -6 4 -9 9 -5 5 3 12 1 16 -5 4 -6 11 -8 16 -5 5 4 9 1 9 -4 0 -6 6 -11
14 -11 7 0 19 -7 26 -15 10 -13 10 -19 -5 -35 -10 -11 -22 -20 -27 -20 -5 0
-18 -9 -30 -20 -12 -11 -28 -20 -35 -20 -8 0 -11 -4 -8 -10 3 -5 0 -10 -8 -10
-7 0 -22 -8 -33 -18 -10 -10 -27 -21 -36 -25 -10 -3 -18 -11 -18 -17 0 -5 -5
-10 -11 -10 -12 0 -81 -51 -112 -82 -10 -10 -22 -18 -26 -18 -5 0 -24 -15 -43
-33 -18 -18 -59 -57 -91 -85 -31 -29 -55 -52 -53 -52 2 0 -15 -20 -37 -44 -59
-63 -100 -110 -117 -136 -8 -13 -25 -35 -37 -49 -42 -49 -93 -125 -93 -140 0
-5 -3 -11 -7 -13 -10 -4 -39 -52 -59 -95 -8 -18 -19 -33 -26 -33 -6 0 -9 -3
-6 -6 3 -3 -12 -37 -33 -76 -21 -39 -39 -75 -39 -79 0 -5 -5 -9 -10 -9 -6 0
-9 -3 -8 -7 3 -13 -44 -113 -53 -113 -5 0 -6 -6 -3 -13 3 -8 -2 -20 -11 -27
-8 -7 -15 -18 -15 -24 0 -6 -26 -63 -57 -126 -32 -63 -58 -120 -58 -126 0 -6
-8 -22 -17 -36 -9 -14 -20 -38 -24 -52 -3 -14 -10 -26 -15 -26 -5 0 -8 -3 -7
-7 1 -5 -4 -21 -11 -38 -7 -16 -12 -32 -11 -34 1 -2 -3 -7 -9 -11 -6 -3 -13
-15 -15 -26 -2 -10 -27 -68 -55 -128 -28 -59 -51 -114 -51 -122 0 -8 -4 -14
-8 -14 -5 0 -9 -6 -9 -12 0 -7 -17 -47 -37 -89 -20 -42 -36 -82 -36 -88 0 -6
-5 -11 -10 -11 -6 0 -9 -3 -8 -7 1 -5 -3 -18 -10 -29 -6 -12 -8 -24 -5 -28 3
-3 1 -6 -5 -6 -7 0 -12 -4 -12 -9 0 -5 -19 -49 -42 -98 -23 -48 -43 -94 -44
-101 -2 -8 -10 -22 -18 -31 -9 -10 -16 -21 -16 -26 0 -16 -133 -275 -176 -342
-8 -13 -14 -26 -13 -29 0 -4 -6 -11 -15 -16 -9 -5 -14 -13 -11 -17 2 -5 -2
-14 -10 -21 -8 -7 -15 -19 -15 -26 0 -8 -5 -14 -10 -14 -6 0 -14 -8 -18 -19
-11 -27 -114 -147 -139 -162 -12 -6 -20 -16 -17 -21 3 -4 0 -8 -6 -8 -6 0 -25
-13 -43 -30 -18 -16 -38 -30 -45 -30 -7 0 -15 -7 -18 -15 -4 -8 -10 -13 -14
-10 -4 3 -11 -2 -14 -11 -3 -8 -10 -12 -16 -9 -5 3 -10 2 -10 -3 0 -11 -6 -12
-115 -16 -49 -2 -94 -1 -100 2 -5 4 -14 7 -20 7 -28 2 -75 18 -70 24 2 5 -7 7
-20 5 -14 -1 -25 2 -25 7 0 6 -7 6 -19 0 -12 -7 -20 -25 -23 -48 -4 -33 0 -42
29 -70 19 -18 43 -33 54 -33 10 0 19 -5 19 -12 0 -6 3 -9 6 -5 4 3 19 0 35 -9
16 -8 29 -12 29 -10 0 3 16 -2 35 -10 19 -8 35 -11 35 -8 0 4 6 1 14 -5 8 -6
18 -11 22 -10 5 1 11 1 14 -1 41 -16 212 -20 245 -6 11 5 27 10 35 11 31 4
106 28 144 46 22 10 43 16 48 13 4 -3 8 0 8 5 0 6 5 11 11 11 16 0 101 42 117
58 8 7 18 10 23 6 5 -3 12 2 15 10 3 9 10 13 15 10 5 -3 9 -1 9 4 0 5 14 15
30 22 17 7 30 16 30 21 0 5 7 9 15 9 8 0 15 5 15 10 0 6 5 10 11 10 6 0 16 6
24 13 7 6 25 21 41 32 15 11 33 26 41 33 7 7 13 11 13 9 0 -8 64 49 144 127
39 38 70 73 69 77 -2 5 1 9 7 9 19 0 128 171 209 330 29 58 58 111 63 117 6 7
7 13 3 13 -4 0 -2 7 5 15 7 8 9 15 4 15 -5 0 -4 4 2 8 9 6 26 42 66 139 6 15
12 33 13 38 2 6 10 27 18 48 9 20 17 39 17 42 0 3 7 20 16 40 8 19 12 35 8 35
-3 0 2 7 10 16 9 8 17 22 17 30 2 18 3 23 18 59 22 56 47 131 49 148 1 4 8 15
17 23 13 14 17 14 31 0 8 -9 13 -16 11 -16 -2 0 0 -21 5 -48 4 -26 11 -60 14
-77 3 -16 7 -34 8 -40 1 -5 6 -16 10 -24 7 -10 6 -12 -4 -6 -10 6 -11 4 -4 -6
4 -8 9 -18 10 -24 1 -5 6 -35 13 -65 6 -30 12 -66 15 -80 2 -14 9 -37 15 -53
6 -15 8 -27 5 -27 -4 0 -2 -6 3 -12 6 -7 9 -21 8 -30 -2 -10 0 -18 4 -18 4 0
7 -8 8 -17 1 -10 7 -31 13 -48 6 -16 12 -32 12 -35 0 -3 8 -26 19 -51 10 -26
15 -50 12 -53 -4 -3 -2 -6 4 -6 10 0 28 -46 25 -62 -1 -5 3 -8 8 -8 5 0 9 -3
8 -7 -2 -11 10 -41 33 -84 10 -20 16 -38 14 -41 -3 -3 1 -11 10 -18 8 -7 15
-21 15 -31 0 -11 5 -19 10 -19 6 0 10 -6 10 -13 0 -7 12 -36 28 -64 77 -147
94 -177 108 -190 8 -8 12 -19 9 -24 -4 -5 -1 -9 5 -9 6 0 9 -4 6 -9 -3 -5 1
-11 9 -15 8 -3 15 -12 15 -21 0 -8 5 -15 12 -15 6 0 8 -3 5 -6 -4 -4 3 -15 15
-25 11 -11 18 -19 14 -19 -8 0 103 -111 147 -148 15 -12 32 -22 37 -22 6 0 10
-4 10 -8 0 -10 84 -50 120 -58 37 -8 110 -11 110 -4 0 3 10 6 23 6 23 2 67 10
102 21 37 10 180 67 185 73 3 3 21 12 40 20 19 8 70 36 113 62 43 26 81 48 84
48 3 0 25 14 50 30 24 17 48 30 52 30 4 0 19 10 32 23 14 12 29 22 34 22 5 0
14 12 19 26 11 32 -19 102 -46 107 -9 2 -43 -9 -75 -25 -32 -15 -60 -28 -63
-29 -3 0 -12 -3 -20 -7 -36 -15 -109 -30 -155 -32 -107 -6 -236 75 -355 222
-6 7 -10 15 -10 18 0 4 -11 21 -25 39 -14 18 -25 38 -25 44 0 7 -5 12 -11 12
-5 0 -7 4 -4 10 3 5 2 10 -3 10 -6 0 -19 19 -31 43 -12 23 -26 49 -31 57 -23
35 -104 225 -113 265 -2 6 -5 15 -8 20 -3 6 -11 30 -18 55 -7 25 -17 54 -22
65 -20 46 -57 165 -51 165 4 0 3 4 -3 8 -5 4 -21 41 -34 82 -14 41 -27 80 -30
85 -3 6 -7 19 -8 30 -2 11 -6 27 -10 35 -5 13 -9 29 -17 65 -1 6 -4 15 -7 20
-15 28 -9 86 10 111 12 15 21 23 21 18 0 -5 7 2 16 14 8 12 20 20 25 17 5 -4
9 -1 9 4 0 6 7 11 15 11 8 0 15 5 15 10 0 6 7 10 15 10 8 0 15 5 15 12 0 6 3
9 6 6 3 -4 48 20 100 53 53 32 97 59 100 59 3 0 30 16 60 35 30 19 58 35 63
35 5 0 11 3 13 8 3 7 69 45 115 67 13 5 23 13 23 18 0 4 4 7 9 7 10 0 187 108
214 130 10 8 19 13 21 10 2 -3 16 7 30 23 14 15 30 27 36 27 5 0 10 5 10 11 0
5 5 7 10 4 6 -3 10 2 10 11 0 10 3 15 6 12 9 -10 104 94 136 150 35 60 70 134
74 156 2 12 8 22 14 24 6 2 8 7 6 11 -3 4 -1 25 5 47 10 43 13 205 4 244 -3
14 -8 35 -11 48 -2 12 -6 32 -8 45 -3 12 -7 32 -10 45 -4 12 -8 30 -10 40 -13
55 -19 78 -25 87 -3 6 -6 15 -7 21 -3 21 -67 149 -76 152 -4 2 -8 10 -8 18 0
8 -4 14 -10 14 -5 0 -10 9 -10 21 0 11 -4 17 -10 14 -5 -3 -10 0 -10 8 0 8 -9
22 -20 32 -11 10 -20 22 -20 28 0 5 -14 22 -31 38 -17 16 -28 29 -25 29 8 0
-63 77 -113 124 -19 17 -46 43 -62 59 -15 15 -30 27 -34 27 -4 0 -13 6 -20 13
-30 26 -38 31 -148 94 -33 18 -65 33 -72 33 -7 0 -15 5 -17 10 -2 6 -13 12
-26 13 -12 0 -22 4 -22 8 0 7 -82 35 -92 31 -5 -1 -8 2 -8 7 0 5 -10 11 -22
14 -13 3 -41 11 -63 17 -22 6 -49 13 -60 15 -11 2 -22 4 -25 6 -3 1 -9 3 -15
4 -5 1 -17 5 -25 8 -42 16 -160 28 -288 30 -79 2 -144 2 -145 1z m791 -960 c7
-8 11 -14 8 -14 -3 0 8 -13 24 -29 17 -15 30 -32 30 -38 0 -5 8 -18 18 -29 10
-10 19 -22 20 -27 1 -4 9 -24 18 -45 9 -20 18 -41 19 -47 2 -5 4 -17 6 -25 2
-8 7 -17 11 -20 3 -3 9 -25 13 -50 4 -25 8 -47 10 -49 3 -2 0 -12 -5 -22 -7
-12 -7 -20 0 -24 6 -4 7 -11 4 -17 -4 -6 -8 -27 -10 -47 -2 -20 -5 -43 -7 -51
-2 -8 -7 -32 -12 -52 -4 -21 -11 -38 -17 -38 -5 0 -7 -3 -4 -8 2 -4 -2 -23
-10 -42 -9 -19 -14 -35 -12 -36 2 0 -3 -8 -11 -17 -7 -10 -10 -17 -5 -17 5 0
4 -4 -2 -8 -5 -4 -21 -25 -34 -47 -47 -78 -160 -192 -174 -178 -3 4 -6 2 -6
-3 0 -6 -18 -20 -40 -33 -22 -12 -40 -19 -40 -15 0 4 -6 1 -12 -8 -11 -13 -58
-33 -105 -45 -7 -2 -21 -5 -30 -7 -10 -3 -18 -5 -18 -6 0 -3 -39 -12 -57 -13
-10 -1 -18 -4 -18 -7 0 -3 -38 -5 -85 -6 -47 0 -85 2 -85 5 0 4 -15 6 -32 7
-18 1 -44 4 -58 8 -14 4 -31 8 -37 8 -7 1 -13 5 -13 9 0 5 -7 5 -17 2 -11 -4
-14 -3 -9 5 4 7 2 12 -3 12 -6 0 -10 11 -9 25 1 14 6 25 11 25 4 0 5 5 2 10
-3 6 -1 10 6 10 7 0 10 3 7 6 -4 3 9 35 28 72 18 37 34 72 34 79 0 6 4 13 10
15 5 2 11 13 13 25 1 11 8 27 14 35 6 7 21 36 34 63 12 28 31 62 40 76 10 14
16 29 12 33 -3 3 -2 6 4 6 6 0 13 8 17 18 8 24 26 52 64 96 6 8 12 20 12 26 0
6 7 13 15 16 8 4 15 12 15 20 0 8 5 14 10 14 6 0 10 6 10 14 0 8 4 16 8 18 5
2 33 34 63 73 72 94 87 111 135 159 59 58 104 96 116 96 5 0 6 5 3 10 -3 6 0
10 7 10 8 0 21 9 31 21 19 22 49 19 75 -7z"/>
</g>
</svg>
